<svg width="227" height="200" viewBox="0 0 227 200" fill="none" xmlns="http://www.w3.org/2000/svg">
<path d="M66.0971 0.99564C56.055 5.10316 51.0945 17.184 55.9341 26.3656C59.5638 33.3725 60.6526 33.4933 121.026 33.4933C161.194 33.4933 176.923 33.8558 179.222 34.9431C189.748 39.6546 186.844 58.1384 174.746 64.4205C172.084 65.8702 158.169 66.1119 94.2876 66.1119C45.408 66.1119 15.5237 66.595 12.62 67.32C3.90878 69.7361 -2.01968 81.3338 0.642071 90.5153C3.42482 99.5759 1.24702 99.2136 69.1219 99.9384C114.977 100.422 130.222 100.905 132.279 102.113C141.715 107.429 137.965 125.551 126.228 131.228C121.389 133.644 118.969 133.765 92.3517 133.765C62.2255 133.765 59.3218 134.249 53.7563 139.443C49.4006 143.55 48.5537 146.33 43.2302 174.961L38.6327 199.123L97.4333 198.76L156.234 198.277L167.123 195.015C188.78 188.251 201.363 178.827 209.107 163.121C222.294 136.664 218.18 109.482 199.548 99.8176L193.257 96.5558L200.274 92.3274C208.864 87.0119 219.148 76.2598 222.172 69.4945C225.561 61.8835 227.375 48.8361 226.528 39.8962C224.592 21.05 215.277 8.365 199.79 3.17021C191.442 0.391595 190.716 0.270786 130.222 0.0291677C90.6579 -0.0916413 68.033 0.149977 66.0971 0.99564Z" fill="#1F8CEB"/>
</svg>
