<svg width="982" height="885" viewBox="0 0 982 885" fill="none" xmlns="http://www.w3.org/2000/svg">
<path opacity="0.05" d="M295.307 4.42511C250.441 22.6809 228.279 76.3742 249.901 117.181C266.117 148.324 270.982 148.861 540.716 148.861C720.178 148.861 790.45 150.471 800.721 155.304C847.749 176.244 834.776 258.395 780.724 286.316C768.832 292.759 706.665 293.833 421.255 293.833C202.872 293.833 69.3563 295.981 56.3831 299.203C17.4635 309.941 -9.02347 361.487 2.86863 402.294C15.3013 442.564 5.57138 440.953 308.821 444.175C513.689 446.323 581.8 448.47 590.991 453.839C633.151 477.465 616.396 558.007 563.959 583.239C542.336 593.979 531.525 594.516 412.606 594.516C278.009 594.516 265.036 596.666 240.171 619.753C220.711 638.007 216.927 650.359 193.143 777.613L172.602 885L435.31 883.387L698.02 881.237L746.669 866.74C843.426 836.676 899.645 794.793 934.241 724.99C993.161 607.401 974.78 486.592 891.535 443.638L863.428 429.141L894.777 410.348C933.155 386.723 979.102 338.935 992.615 308.867C1007.75 275.04 1015.86 217.051 1012.08 177.318C1003.43 93.5562 961.807 37.1781 892.616 14.09C855.318 1.74044 852.077 1.2035 581.8 0.129635C405.039 -0.407298 303.956 0.666569 295.307 4.42511Z" fill="url(#paint0_linear_137_7824)"/>
<defs>
<linearGradient id="paint0_linear_137_7824" x1="4.58329e-05" y1="708.817" x2="1121.93" y2="708.817" gradientUnits="userSpaceOnUse">
<stop stop-color="#0053AD"/>
<stop offset="1" stop-color="#2B3F6C"/>
</linearGradient>
</defs>
</svg>
