<?xml version="1.0" encoding="utf-8"?>
<svg fill="none" height="40" viewBox="0.0 0.0 218.0 40" width="218" xmlns="http://www.w3.org/2000/svg">
<path d="M11.6607 3.1744C9.88908 3.89386 9.01396 6.00994 9.86774 7.61817C10.5081 8.84549 10.7002 8.86666 21.3511 8.86666C28.4374 8.86666 31.2122 8.93014 31.6178 9.12059C33.4748 9.94586 32.9625 13.1835 30.8282 14.2838C30.3586 14.5378 27.9038 14.5801 16.634 14.5801C8.01076 14.5801 2.73865 14.6647 2.22638 14.7917C0.689577 15.2149 -0.356307 17.2463 0.113273 18.8546C0.604197 20.4416 0.219995 20.3782 12.1943 20.5051C20.2839 20.5898 22.9734 20.6744 23.3363 20.886C25.001 21.8171 24.3394 24.9913 22.2689 25.9857C21.4151 26.4089 20.9882 26.4301 16.2924 26.4301C10.9777 26.4301 10.4654 26.5149 9.48354 27.4247C8.71513 28.1441 8.56572 28.6309 7.62656 33.6461L6.81548 37.8782L17.1889 37.8147L27.5625 37.7299L29.4835 37.1586C33.3041 35.9738 35.524 34.3231 36.89 31.5721C39.2166 26.9379 38.4908 22.1768 35.2037 20.4839L34.0939 19.9126L35.3318 19.172C36.8472 18.2409 38.6615 16.3576 39.1951 15.1726C39.7929 13.8394 40.1129 11.5541 39.9635 9.98818C39.622 6.68709 37.9786 4.46521 35.2464 3.55529C33.7737 3.06859 33.6457 3.04743 22.9734 3.00511C15.9936 2.98395 12.0022 3.02627 11.6607 3.1744Z" fill="white"/>
<path d="M52 20.3092L52.1038 11.7892L52 2.01481C52 2.01481 52.2162 1.99738 52.6489 1.96254C53.0817 1.92771 53.6353 1.88414 54.3102 1.83187C55.0026 1.7796 55.7379 1.73603 56.5166 1.7012C57.3128 1.66636 58.0656 1.64893 58.7749 1.64893C60.5745 1.64893 61.9592 2.18032 62.9282 3.24315C63.9145 4.30598 64.4077 5.89146 64.4077 7.99968C64.4077 9.32386 64.2346 10.4215 63.8886 11.2927C63.5426 12.1464 63.0665 12.8172 62.4609 13.305C61.8724 13.7929 61.2064 14.1414 60.4622 14.3504C59.7354 14.5421 58.9826 14.6379 58.2039 14.6379C57.5809 14.6379 57.0013 14.6205 56.4647 14.5856C55.9456 14.5508 55.6426 14.5334 55.5562 14.5334V20.3092H52ZM58.3077 11.7631C58.7749 11.7631 59.1558 11.7283 59.4498 11.6586C59.7439 11.5715 59.9605 11.4669 60.0988 11.3449C60.3239 11.1184 60.4796 10.7264 60.566 10.1689C60.6524 9.5939 60.6958 8.80116 60.6958 7.7906C60.6958 7.00656 60.6613 6.42289 60.592 6.03957C60.5226 5.63885 60.4362 5.36007 60.3324 5.20326C60.246 5.04645 60.1507 4.93321 60.0469 4.86351C59.9256 4.74153 59.7009 4.64573 59.372 4.57602C59.0605 4.50632 58.6451 4.47148 58.126 4.47148C57.6588 4.47148 57.1915 4.48892 56.7243 4.52375C56.2745 4.55859 55.8851 4.60216 55.5562 4.65443V11.5279C55.6255 11.5453 55.9281 11.5888 56.4647 11.6586C57.0013 11.7283 57.6154 11.7631 58.3077 11.7631ZM74.4626 20.6489C73.4414 20.6489 72.4809 20.5096 71.5813 20.2308C70.6813 19.952 69.8852 19.4729 69.1932 18.7934C68.5009 18.0964 67.9558 17.1294 67.5579 15.8924C67.177 14.6379 66.9868 13.0437 66.9868 11.1097C66.9868 9.17575 67.177 7.59896 67.5579 6.37932C67.9558 5.14229 68.5009 4.184 69.1932 3.5045C69.8852 2.80756 70.6813 2.32843 71.5813 2.06708C72.4809 1.7883 73.4414 1.64893 74.4626 1.64893C75.4835 1.64893 76.4439 1.7883 77.3439 2.06708C78.2435 2.32843 79.0397 2.80756 79.732 3.5045C80.424 4.184 80.9605 5.14229 81.3414 6.37932C81.7393 7.59896 81.9384 9.17575 81.9384 11.1097C81.9384 13.0437 81.7393 14.6379 81.3414 15.8924C80.9605 17.1294 80.424 18.0964 79.732 18.7934C79.0397 19.4729 78.2435 19.952 77.3439 20.2308C76.4613 20.5096 75.5009 20.6489 74.4626 20.6489ZM74.4626 17.4866C75.1201 17.4866 75.6826 17.4169 76.1499 17.2775C76.6171 17.1207 77.0065 16.8245 77.3179 16.389C77.6294 15.9534 77.8542 15.3174 77.9928 14.4811C78.1486 13.6274 78.2264 12.521 78.2264 11.162C78.2264 9.80298 78.1571 8.70532 78.0188 7.86901C77.8801 7.01526 77.6554 6.37063 77.3439 5.93503C77.0324 5.49944 76.6341 5.20326 76.1499 5.04645C75.6826 4.88964 75.1201 4.81124 74.4626 4.81124C73.7877 4.81124 73.2077 4.88964 72.7234 5.04645C72.2562 5.20326 71.8668 5.49944 71.5553 5.93503C71.2609 6.37063 71.0447 7.01526 70.9064 7.86901C70.7677 8.70532 70.6987 9.80298 70.6987 11.162C70.6987 12.5384 70.7677 13.6448 70.9064 14.4811C71.0622 15.3174 71.2869 15.9534 71.5813 16.389C71.8928 16.8245 72.2822 17.1207 72.7494 17.2775C73.2337 17.4169 73.8048 17.4866 74.4626 17.4866ZM85.7145 20.3092L85.8183 11.7631L85.7404 2.01481C85.8617 1.99738 86.1643 1.97124 86.649 1.93641C87.1336 1.90157 87.7047 1.8667 88.3622 1.83187C89.0371 1.7796 89.7205 1.73603 90.4128 1.7012C91.1222 1.66636 91.7541 1.64893 92.3077 1.64893C93.6575 1.64893 94.8171 1.84931 95.786 2.25003C96.7724 2.63335 97.5337 3.26058 98.0703 4.13173C98.6069 5.00288 98.875 6.17025 98.875 7.63379C98.875 9.09734 98.555 10.2821 97.9146 11.1881C97.2916 12.0941 96.3656 12.7301 95.1371 13.096V13.2266L99.1346 20.3092H95.1631L91.8405 13.5925L89.2707 13.5141V20.3092H85.7145ZM92.4375 10.7177C93.5622 10.7177 94.2979 10.4738 94.6439 9.98593C94.9899 9.48067 95.1631 8.70532 95.1631 7.65993C95.1631 6.73651 95.0937 6.06571 94.9554 5.64755C94.8171 5.22939 94.6354 4.95061 94.4103 4.81124C94.2545 4.7067 94.0035 4.62829 93.6575 4.57602C93.3286 4.50632 92.9307 4.47148 92.4635 4.47148C91.7711 4.47148 91.1656 4.49762 90.6464 4.54989C90.1447 4.58472 89.6945 4.62829 89.2966 4.68056L89.2707 10.5086C89.8073 10.5609 90.3435 10.6132 90.8801 10.6654C91.4337 10.7003 91.9528 10.7177 92.4375 10.7177ZM105.442 20.3092L105.52 4.99418L100.432 5.07258V1.98868H114.086V5.07258L108.92 4.99418L108.998 20.3092H105.442ZM112.831 20.3092L117.814 1.98868H122.513L127.497 20.3092H123.811L122.435 14.5595L124.356 16.0231H115.971L117.892 14.5595L116.491 20.3092H112.831ZM117.866 14.5595L116.646 12.9914H123.681L122.461 14.5595L119.865 3.73971L121.838 5.28166H118.489L120.462 3.73971L117.866 14.5595ZM129.721 20.3092V1.98868H133.277L133.121 18.8979L131.564 17.1207L140 17.0423V20.3092H129.721Z" fill="white"/>
<g filter="url(#filter0_d_185_4878)">
<path d="M54.9253 38.3509C54.5943 38.3509 54.2588 38.3375 53.9189 38.3107C53.5879 38.2928 53.2837 38.2659 53.0064 38.2302C52.7291 38.2033 52.501 38.181 52.3221 38.1631C52.1431 38.1362 52.0403 38.1183 52.0134 38.1094L52.0671 33.8287L52 28.81C52.0358 28.81 52.1431 28.801 52.3221 28.7831C52.501 28.7652 52.7291 28.7473 53.0064 28.7294C53.2837 28.7026 53.5789 28.6847 53.892 28.6758C54.2141 28.6579 54.5272 28.6489 54.8314 28.6489C55.3234 28.6489 55.7662 28.725 56.1598 28.8771C56.5534 29.0291 56.8665 29.2886 57.0991 29.6554C57.3407 30.0132 57.4614 30.5097 57.4614 31.1449C57.4614 31.6369 57.3854 32.0261 57.2333 32.3123C57.0902 32.5986 56.9157 32.8133 56.71 32.9565C56.5132 33.0906 56.3298 33.1801 56.1598 33.2248C55.9988 33.2696 55.9049 33.2919 55.878 33.2919L55.9585 32.7686V33.8287L55.8109 33.3188C55.9183 33.3188 56.0748 33.3456 56.2806 33.3993C56.4953 33.444 56.71 33.538 56.9247 33.6811C57.1394 33.8242 57.3228 34.0389 57.4749 34.3252C57.6269 34.6025 57.703 34.9738 57.703 35.439C57.703 36.0205 57.6225 36.5036 57.4614 36.8883C57.3094 37.264 57.0991 37.5592 56.8308 37.7739C56.5624 37.9886 56.2627 38.1362 55.9317 38.2167C55.6097 38.3062 55.2742 38.3509 54.9253 38.3509ZM55.0729 37.4787C55.6544 37.4787 56.0391 37.3177 56.2269 36.9956C56.4148 36.6735 56.5087 36.177 56.5087 35.5061C56.5087 34.8351 56.3522 34.3744 56.0391 34.1239C55.7349 33.8734 55.3144 33.7482 54.7777 33.7482H52.6173L53.1272 33.4664L53.154 37.841L53.1272 37.3445C53.1719 37.3445 53.2837 37.3579 53.4626 37.3848C53.6416 37.4027 53.8697 37.425 54.147 37.4519C54.4243 37.4697 54.733 37.4787 55.0729 37.4787ZM54.885 32.8759C55.4397 32.8759 55.8109 32.7462 55.9988 32.4868C56.1956 32.2184 56.294 31.7845 56.294 31.1851C56.294 30.55 56.1777 30.1071 55.9451 29.8566C55.7125 29.6062 55.3234 29.4809 54.7777 29.4809C54.4646 29.4809 54.1828 29.4899 53.9323 29.5077C53.6818 29.5256 53.4761 29.5435 53.315 29.5614C53.154 29.5793 53.0511 29.5927 53.0064 29.6017L53.1272 29.0783V33.1846L52.6173 32.8625L54.885 32.8759ZM58.9006 38.1631L61.4368 28.8368H63.0202L65.5563 38.1631H64.4023L63.6911 35.3719L64.2547 35.694H60.2291L60.7658 35.3719L60.0546 38.1631H58.9006ZM60.7927 35.2243L60.4169 34.7009H64.04L63.6643 35.2243L62.148 29.3333L62.7786 29.8298H61.6783L62.309 29.3333L60.7927 35.2243ZM67.0305 38.1765L67.0708 33.8958L67.0305 28.8368H68.1711L68.1174 32.9565L68.1711 38.1631L67.0305 38.1765ZM69.7937 38.1631L72.6653 32.943L72.7861 33.6274L69.9815 28.8368H71.2429L73.5107 33.037L72.558 32.621H73.6583L72.7995 33.0236L75.0941 28.8368H76.3555L73.5107 33.6274L73.5912 33.0906L76.5567 38.1631H75.2283L72.8532 33.6945L73.4838 34.1373H72.625L73.3362 33.6945L71.1221 38.1631H69.7937ZM76.8404 38.1631L79.3766 28.8368H80.96L83.4961 38.1631H82.3421L81.6309 35.3719L82.1945 35.694H78.1689L78.7056 35.3719L77.9944 38.1631H76.8404ZM78.7324 35.2243L78.3567 34.7009H81.9798L81.6041 35.2243L80.0877 29.3333L80.7184 29.8298H79.6181L80.2488 29.3333L78.7324 35.2243ZM87.6138 38.3509C87.4349 38.3509 87.2113 38.342 86.9429 38.3241C86.6834 38.3152 86.4151 38.2973 86.1377 38.2704C85.8694 38.2525 85.6278 38.2346 85.4131 38.2167C85.1984 38.1989 85.0508 38.1854 84.9703 38.1765V28.8234C85.0061 28.8234 85.1224 28.8144 85.3192 28.7965C85.516 28.7786 85.7576 28.7608 86.0438 28.7429C86.3301 28.716 86.6253 28.6937 86.9295 28.6758C87.2426 28.6579 87.5199 28.6489 87.7614 28.6489C88.4503 28.6489 89.0094 28.7786 89.4388 29.0381C89.8771 29.2886 90.2126 29.6375 90.4452 30.0848C90.6778 30.5231 90.8388 31.0286 90.9283 31.6011C91.0177 32.1647 91.0624 32.7596 91.0624 33.3859C91.0624 34.6204 90.9104 35.6 90.6062 36.3247C90.311 37.0493 89.904 37.5682 89.3851 37.8813C88.8662 38.1944 88.2758 38.3509 87.6138 38.3509ZM87.4662 37.3713C87.9493 37.3713 88.3071 37.34 88.5397 37.2774C88.7723 37.2058 88.9468 37.1119 89.063 36.9956C89.1883 36.8704 89.3046 36.6735 89.4119 36.4052C89.5282 36.1368 89.6222 35.7521 89.6937 35.2511C89.7653 34.7501 89.8011 34.0971 89.8011 33.2919C89.8011 32.4778 89.7429 31.7622 89.6266 31.1449C89.5193 30.5276 89.3404 30.1116 89.0899 29.8969C89.0004 29.8164 88.8573 29.7538 88.6605 29.709C88.4726 29.6554 88.1819 29.6285 87.7883 29.6285C87.4304 29.6285 87.086 29.6464 86.755 29.6822C86.424 29.709 86.1378 29.7314 85.8962 29.7493L86.0975 29.2125V37.7471L85.856 37.1969C86.1154 37.2327 86.3703 37.2729 86.6208 37.3177C86.8713 37.3535 87.1531 37.3713 87.4662 37.3713ZM92.0938 38.1631L94.63 28.8368H96.2134L98.7495 38.1631H97.5955L96.8843 35.3719L97.4479 35.694H93.4223L93.959 35.3719L93.2478 38.1631H92.0938ZM93.9859 35.2243L93.6101 34.7009H97.2332L96.8575 35.2243L95.3412 29.3333L95.9718 29.8298H94.8715L95.5022 29.3333L93.9859 35.2243Z" fill="white"/>
</g>
<path d="M138.702 31.5H107.797C106.666 31.5 105.75 32.3954 105.75 33.5C105.75 34.6046 106.666 35.5 107.797 35.5H138.702C139.833 35.5 140.75 34.6046 140.75 33.5C140.75 32.3954 139.833 31.5 138.702 31.5Z" fill="white"/>
<defs>
<filter color-interpolation-filters="sRGB" filterUnits="userSpaceOnUse" height="19.7021" id="filter0_d_185_4878" width="56.7495" x="47" y="27.6489">
<feFlood flood-opacity="0" result="BackgroundImageFix"/>
<feColorMatrix in="SourceAlpha" result="hardAlpha" type="matrix" values="0 0 0 0 0 0 0 0 0 0 0 0 0 0 0 0 0 0 127 0"/>
<feOffset dy="4"/>
<feGaussianBlur stdDeviation="2.5"/>
<feComposite in2="hardAlpha" operator="out"/>
<feColorMatrix type="matrix" values="0 0 0 0 0 0 0 0 0 0 0 0 0 0 0 0 0 0 0.1 0"/>
<feBlend in2="BackgroundImageFix" mode="normal" result="effect1_dropShadow_185_4878"/>
<feBlend in="SourceGraphic" in2="effect1_dropShadow_185_4878" mode="normal" result="shape"/>
</filter>
</defs>
</svg>