<svg width="252" height="89" viewBox="0 0 252 89" fill="none" xmlns="http://www.w3.org/2000/svg">
<path d="M39.0431 1.08035C34.8066 2.82949 32.7139 7.97398 34.7556 11.8838C36.2868 14.8676 36.7462 14.9191 62.2163 14.9191C79.1624 14.9191 85.7979 15.0734 86.7678 15.5364C91.2085 17.5428 89.9836 25.4139 84.8796 28.089C83.7567 28.7064 77.8864 28.8093 50.9361 28.8093C30.3148 28.8093 17.7073 29.015 16.4823 29.3237C12.8072 30.3526 10.3061 35.2913 11.4291 39.2012C12.6031 43.0595 11.6843 42.9052 40.3192 43.2139C59.6643 43.4197 66.0958 43.6254 66.9637 44.1399C70.9447 46.4035 69.3626 54.1205 64.4112 56.538C62.3694 57.567 61.3485 57.6185 50.1193 57.6185C37.4098 57.6185 36.1848 57.8245 33.8368 60.0365C31.9992 61.7855 31.6419 62.969 29.3961 75.1615L27.4565 85.4505L52.2632 85.296L77.0701 85.09L81.6638 83.701C90.8004 80.8205 96.1089 76.8075 99.3757 70.1195C104.939 58.853 103.204 47.278 95.3431 43.1624L92.6891 41.7734L95.6493 39.9728C99.2732 37.7093 103.612 33.1306 104.888 30.2497C106.317 27.0087 107.083 21.4526 106.726 17.6457C105.909 9.62023 101.979 4.2185 95.4452 2.00637C91.9233 0.823128 91.6172 0.771683 66.0958 0.668793C49.4048 0.617348 39.8598 0.720238 39.0431 1.08035Z" fill="url(#paint0_linear_68_12838)"/>
<path d="M238.023 51H196.909C195.405 51 194.185 52.2312 194.185 53.75C194.185 55.2688 195.405 56.5 196.909 56.5H238.023C239.527 56.5 240.747 55.2688 240.747 53.75C240.747 52.2312 239.527 51 238.023 51Z" fill="url(#paint1_linear_68_12838)"/>
<g filter="url(#filter0_d_68_12838)">
<path d="M126.634 60.252C126.195 60.252 125.749 60.234 125.297 60.198C124.857 60.174 124.453 60.138 124.084 60.09C123.716 60.054 123.413 60.024 123.175 60C122.937 59.964 122.801 59.94 122.765 59.928L122.836 54.186L122.747 47.454C122.795 47.454 122.937 47.442 123.175 47.418C123.413 47.394 123.716 47.37 124.084 47.346C124.453 47.31 124.845 47.286 125.261 47.274C125.689 47.25 126.105 47.238 126.51 47.238C127.164 47.238 127.752 47.34 128.275 47.544C128.798 47.748 129.214 48.096 129.523 48.588C129.844 49.068 130.005 49.734 130.005 50.586C130.005 51.246 129.904 51.768 129.702 52.152C129.511 52.536 129.28 52.824 129.006 53.016C128.745 53.196 128.501 53.316 128.275 53.376C128.061 53.436 127.936 53.466 127.901 53.466L128.008 52.764V54.186L127.811 53.502C127.954 53.502 128.162 53.538 128.436 53.61C128.721 53.67 129.006 53.796 129.291 53.988C129.577 54.18 129.821 54.468 130.023 54.852C130.225 55.224 130.326 55.722 130.326 56.346C130.326 57.126 130.219 57.774 130.005 58.29C129.803 58.794 129.523 59.19 129.167 59.478C128.81 59.766 128.412 59.964 127.972 60.072C127.544 60.192 127.098 60.252 126.634 60.252ZM126.831 59.082C127.603 59.082 128.115 58.866 128.364 58.434C128.614 58.002 128.739 57.336 128.739 56.436C128.739 55.536 128.531 54.918 128.115 54.582C127.71 54.246 127.152 54.078 126.438 54.078H123.567L124.245 53.7L124.281 59.568L124.245 58.902C124.304 58.902 124.453 58.92 124.691 58.956C124.929 58.98 125.232 59.01 125.6 59.046C125.969 59.07 126.379 59.082 126.831 59.082ZM126.581 52.908C127.318 52.908 127.811 52.734 128.061 52.386C128.323 52.026 128.453 51.444 128.453 50.64C128.453 49.788 128.299 49.194 127.99 48.858C127.681 48.522 127.164 48.354 126.438 48.354C126.022 48.354 125.648 48.366 125.315 48.39C124.982 48.414 124.709 48.438 124.495 48.462C124.281 48.486 124.144 48.504 124.084 48.516L124.245 47.814V53.322L123.567 52.89L126.581 52.908ZM131.917 60L135.288 47.49H137.392L140.762 60H139.229L138.283 56.256L139.032 56.688H133.683L134.396 56.256L133.451 60H131.917ZM134.432 56.058L133.932 55.356H138.747L138.248 56.058L136.233 48.156L137.071 48.822H135.609L136.447 48.156L134.432 56.058ZM142.721 60.018L142.775 54.276L142.721 47.49H144.237L144.166 53.016L144.237 60L142.721 60.018ZM146.393 60L150.209 52.998L150.37 53.916L146.643 47.49H148.319L151.333 53.124L150.067 52.566H151.529L150.387 53.106L153.437 47.49H155.113L151.333 53.916L151.44 53.196L155.381 60H153.615L150.459 54.006L151.297 54.6H150.156L151.101 54.006L148.158 60H146.393ZM155.757 60L159.128 47.49H161.232L164.602 60H163.069L162.124 56.256L162.873 56.688H157.523L158.236 56.256L157.291 60H155.757ZM158.272 56.058L157.773 55.356H162.587L162.088 56.058L160.073 48.156L160.911 48.822H159.449L160.287 48.156L158.272 56.058ZM170.074 60.252C169.837 60.252 169.539 60.24 169.183 60.216C168.838 60.204 168.481 60.18 168.113 60.144C167.756 60.12 167.435 60.096 167.15 60.072C166.864 60.048 166.668 60.03 166.561 60.018V47.472C166.609 47.472 166.763 47.46 167.025 47.436C167.287 47.412 167.607 47.388 167.988 47.364C168.368 47.328 168.761 47.298 169.165 47.274C169.581 47.25 169.949 47.238 170.27 47.238C171.186 47.238 171.929 47.412 172.499 47.76C173.082 48.096 173.528 48.564 173.837 49.164C174.146 49.752 174.36 50.43 174.479 51.198C174.598 51.954 174.657 52.752 174.657 53.592C174.657 55.248 174.455 56.562 174.051 57.534C173.659 58.506 173.118 59.202 172.428 59.622C171.739 60.042 170.954 60.252 170.074 60.252ZM169.878 58.938C170.52 58.938 170.996 58.896 171.305 58.812C171.614 58.716 171.846 58.59 172 58.434C172.167 58.266 172.321 58.002 172.464 57.642C172.618 57.282 172.743 56.766 172.838 56.094C172.933 55.422 172.981 54.546 172.981 53.466C172.981 52.374 172.904 51.414 172.749 50.586C172.606 49.758 172.369 49.2 172.036 48.912C171.917 48.804 171.727 48.72 171.465 48.66C171.216 48.588 170.829 48.552 170.306 48.552C169.831 48.552 169.373 48.576 168.933 48.624C168.493 48.66 168.113 48.69 167.792 48.714L168.059 47.994V59.442L167.738 58.704C168.083 58.752 168.422 58.806 168.755 58.866C169.088 58.914 169.462 58.938 169.878 58.938ZM176.028 60L179.398 47.49H181.502L184.873 60H183.339L182.394 56.256L183.143 56.688H177.793L178.506 56.256L177.561 60H176.028ZM178.542 56.058L178.043 55.356H182.857L182.358 56.058L180.343 48.156L181.181 48.822H179.719L180.557 48.156L178.542 56.058Z" fill="#454545"/>
</g>
<g filter="url(#filter1_d_68_12838)">
<path d="M122.475 41.5L122.613 30.09L122.475 17C122.475 17 122.763 16.9767 123.341 16.93C123.92 16.8834 124.659 16.825 125.561 16.755C126.485 16.685 127.468 16.6267 128.508 16.58C129.571 16.5334 130.577 16.51 131.524 16.51C133.928 16.51 135.778 17.2217 137.072 18.645C138.39 20.0684 139.049 22.1917 139.049 25.015C139.049 26.7884 138.817 28.2584 138.355 29.425C137.893 30.5684 137.257 31.4667 136.448 32.12C135.662 32.7734 134.772 33.24 133.778 33.52C132.807 33.7767 131.802 33.905 130.762 33.905C129.929 33.905 129.155 33.8817 128.438 33.835C127.745 33.7884 127.34 33.765 127.225 33.765V41.5H122.475ZM130.9 30.055C131.524 30.055 132.033 30.0084 132.426 29.915C132.819 29.7984 133.108 29.6584 133.293 29.495C133.593 29.1917 133.802 28.6667 133.917 27.92C134.032 27.15 134.09 26.0884 134.09 24.735C134.09 23.685 134.044 22.9034 133.952 22.39C133.859 21.8534 133.744 21.48 133.605 21.27C133.489 21.06 133.362 20.9084 133.223 20.815C133.061 20.6517 132.761 20.5234 132.322 20.43C131.906 20.3367 131.351 20.29 130.658 20.29C130.033 20.29 129.409 20.3134 128.785 20.36C128.184 20.4067 127.664 20.465 127.225 20.535V29.74C127.318 29.7634 127.722 29.8217 128.438 29.915C129.155 30.0084 129.976 30.055 130.9 30.055ZM152.48 41.955C151.116 41.955 149.833 41.7684 148.631 41.395C147.429 41.0217 146.365 40.38 145.441 39.47C144.516 38.5367 143.788 37.2417 143.257 35.585C142.748 33.905 142.494 31.77 142.494 29.18C142.494 26.59 142.748 24.4784 143.257 22.845C143.788 21.1884 144.516 19.905 145.441 18.995C146.365 18.0617 147.429 17.42 148.631 17.07C149.833 16.6967 151.116 16.51 152.48 16.51C153.843 16.51 155.126 16.6967 156.329 17.07C157.53 17.42 158.594 18.0617 159.519 18.995C160.443 19.905 161.16 21.1884 161.668 22.845C162.2 24.4784 162.466 26.59 162.466 29.18C162.466 31.77 162.2 33.905 161.668 35.585C161.16 37.2417 160.443 38.5367 159.519 39.47C158.594 40.38 157.53 41.0217 156.329 41.395C155.15 41.7684 153.867 41.955 152.48 41.955ZM152.48 37.72C153.358 37.72 154.109 37.6267 154.734 37.44C155.358 37.23 155.878 36.8334 156.294 36.25C156.71 35.6667 157.01 34.815 157.195 33.695C157.403 32.5517 157.507 31.07 157.507 29.25C157.507 27.43 157.415 25.96 157.23 24.84C157.045 23.6967 156.745 22.8334 156.329 22.25C155.913 21.6667 155.381 21.27 154.734 21.06C154.109 20.85 153.358 20.745 152.48 20.745C151.578 20.745 150.804 20.85 150.157 21.06C149.533 21.27 149.012 21.6667 148.596 22.25C148.203 22.8334 147.914 23.6967 147.729 24.84C147.544 25.96 147.452 27.43 147.452 29.25C147.452 31.0934 147.544 32.575 147.729 33.695C147.938 34.815 148.238 35.6667 148.631 36.25C149.047 36.8334 149.567 37.23 150.191 37.44C150.838 37.6267 151.601 37.72 152.48 37.72ZM167.51 41.5L167.649 30.055L167.545 17C167.707 16.9767 168.111 16.9417 168.758 16.895C169.406 16.8484 170.168 16.8017 171.047 16.755C171.948 16.685 172.861 16.6267 173.786 16.58C174.733 16.5334 175.577 16.51 176.317 16.51C178.12 16.51 179.669 16.7784 180.963 17.315C182.281 17.8284 183.298 18.6684 184.015 19.835C184.731 21.0017 185.089 22.565 185.089 24.525C185.089 26.485 184.662 28.0717 183.807 29.285C182.974 30.4984 181.738 31.35 180.096 31.84V32.015L185.436 41.5H180.131L175.693 32.505L172.26 32.4V41.5H167.51ZM176.49 28.655C177.993 28.655 178.975 28.3284 179.438 27.675C179.9 26.9984 180.131 25.96 180.131 24.56C180.131 23.3234 180.038 22.425 179.854 21.865C179.669 21.305 179.426 20.9317 179.126 20.745C178.918 20.605 178.582 20.5 178.12 20.43C177.681 20.3367 177.149 20.29 176.525 20.29C175.6 20.29 174.791 20.325 174.098 20.395C173.428 20.4417 172.826 20.5 172.295 20.57L172.26 28.375C172.977 28.445 173.693 28.515 174.41 28.585C175.149 28.6317 175.843 28.655 176.49 28.655ZM193.861 41.5L193.965 20.99L187.169 21.095V16.965H205.408V21.095L198.508 20.99L198.612 41.5H193.861ZM203.731 41.5L210.388 16.965H216.664L223.322 41.5H218.398L216.56 33.8L219.126 35.76H207.927L210.492 33.8L208.62 41.5H203.731ZM210.458 33.8L208.828 31.7H218.225L216.595 33.8L213.128 19.31L215.763 21.375H211.29L213.925 19.31L210.458 33.8ZM226.293 41.5V16.965H231.043L230.835 39.61L228.755 37.23L240.024 37.125V41.5H226.293Z" fill="#454545"/>
</g>
<defs>
<filter id="filter0_d_68_12838" x="117.747" y="46.238" width="72.1255" height="23.014" filterUnits="userSpaceOnUse" color-interpolation-filters="sRGB">
<feFlood flood-opacity="0" result="BackgroundImageFix"/>
<feColorMatrix in="SourceAlpha" type="matrix" values="0 0 0 0 0 0 0 0 0 0 0 0 0 0 0 0 0 0 127 0" result="hardAlpha"/>
<feOffset dy="4"/>
<feGaussianBlur stdDeviation="2.5"/>
<feComposite in2="hardAlpha" operator="out"/>
<feColorMatrix type="matrix" values="0 0 0 0 0 0 0 0 0 0 0 0 0 0 0 0 0 0 0.1 0"/>
<feBlend mode="normal" in2="BackgroundImageFix" result="effect1_dropShadow_68_12838"/>
<feBlend mode="normal" in="SourceGraphic" in2="effect1_dropShadow_68_12838" result="shape"/>
</filter>
<filter id="filter1_d_68_12838" x="117.475" y="15.51" width="127.549" height="35.445" filterUnits="userSpaceOnUse" color-interpolation-filters="sRGB">
<feFlood flood-opacity="0" result="BackgroundImageFix"/>
<feColorMatrix in="SourceAlpha" type="matrix" values="0 0 0 0 0 0 0 0 0 0 0 0 0 0 0 0 0 0 127 0" result="hardAlpha"/>
<feOffset dy="4"/>
<feGaussianBlur stdDeviation="2.5"/>
<feComposite in2="hardAlpha" operator="out"/>
<feColorMatrix type="matrix" values="0 0 0 0 0 0 0 0 0 0 0 0 0 0 0 0 0 0 0.1 0"/>
<feBlend mode="normal" in2="BackgroundImageFix" result="effect1_dropShadow_68_12838"/>
<feBlend mode="normal" in="SourceGraphic" in2="effect1_dropShadow_68_12838" result="shape"/>
</filter>
<linearGradient id="paint0_linear_68_12838" x1="11.1582" y1="68.57" x2="117.098" y2="68.57" gradientUnits="userSpaceOnUse">
<stop stop-color="#0053AD"/>
<stop offset="1" stop-color="#2B3F6C"/>
</linearGradient>
<linearGradient id="paint1_linear_68_12838" x1="194.185" y1="52.095" x2="245.754" y2="52.095" gradientUnits="userSpaceOnUse">
<stop stop-color="#0053AD"/>
<stop offset="1" stop-color="#2B3F6C"/>
</linearGradient>
</defs>
</svg>
