<svg width="40" height="35" viewBox="0 0 40 35" fill="none" xmlns="http://www.w3.org/2000/svg">
<path d="M11.6607 0.174395C9.88908 0.893864 9.01396 3.00994 9.86774 4.61817C10.5081 5.84549 10.7002 5.86666 21.3511 5.86666C28.4374 5.86666 31.2122 5.93014 31.6178 6.12059C33.4748 6.94586 32.9625 10.1835 30.8282 11.2838C30.3586 11.5378 27.9038 11.5801 16.634 11.5801C8.01076 11.5801 2.73865 11.6647 2.22638 11.7917C0.689577 12.2149 -0.356307 14.2463 0.113273 15.8546C0.604197 17.4416 0.219995 17.3782 12.1943 17.5051C20.2839 17.5898 22.9734 17.6744 23.3363 17.886C25.001 18.8171 24.3394 21.9913 22.2689 22.9857C21.4151 23.4089 20.9882 23.4301 16.2924 23.4301C10.9777 23.4301 10.4654 23.5149 9.48354 24.4247C8.71513 25.1441 8.56572 25.6309 7.62656 30.6461L6.81548 34.8782L17.1889 34.8147L27.5625 34.7299L29.4835 34.1586C33.3041 32.9738 35.524 31.3231 36.89 28.5721C39.2166 23.9379 38.4908 19.1768 35.2037 17.4839L34.0939 16.9126L35.3318 16.172C36.8472 15.2409 38.6615 13.3576 39.1951 12.1726C39.7929 10.8394 40.1129 8.55409 39.9635 6.98818C39.622 3.68709 37.9786 1.46521 35.2464 0.555292C33.7737 0.0685913 33.6457 0.0474306 22.9734 0.00510898C15.9936 -0.0160518 12.0022 0.0262697 11.6607 0.174395Z" fill="white"/>
</svg>
